<svg width="44" height="44" viewBox="0 0 44 44" fill="none" xmlns="http://www.w3.org/2000/svg">
<path d="M18.3979 7.86539C18.8984 5.83785 21.7808 5.83785 22.2813 7.8654L24.0771 15.1398C24.2552 15.861 24.8183 16.4241 25.5395 16.6021L32.8139 18.3979C34.8414 18.8984 34.8414 21.7808 32.8139 22.2813L25.5395 24.0771C24.8183 24.2552 24.2552 24.8183 24.0771 25.5395L22.2813 32.8139C21.7808 34.8414 18.8984 34.8414 18.3979 32.8139L16.6021 25.5395C16.4241 24.8183 15.861 24.2552 15.1398 24.0771L7.86539 22.2813C5.83785 21.7808 5.83785 18.8984 7.8654 18.3979L15.1398 16.6021C15.861 16.4241 16.4241 15.861 16.6021 15.1398L18.3979 7.86539Z" fill="#A56BC1"/>
<path d="M30.9212 26.6537C31.2966 25.1331 33.4584 25.1331 33.8338 26.6537L34.4615 29.1966C34.5951 29.7375 35.0174 30.1598 35.5583 30.2933L38.1011 30.9211C39.6218 31.2965 39.6218 33.4582 38.1011 33.8336L35.5583 34.4614C35.0174 34.5949 34.5951 35.0172 34.4615 35.5581L33.8338 38.1009C33.4584 39.6216 31.2966 39.6216 30.9212 38.1009L30.2935 35.5581C30.16 35.0172 29.7376 34.5949 29.1967 34.4614L26.6539 33.8336C25.1333 33.4582 25.1333 31.2965 26.6539 30.9211L29.1967 30.2933C29.7376 30.1598 30.16 29.7375 30.2935 29.1966L30.9212 26.6537Z" fill="#A56BC1"/>
</svg>
