<svg width="30" height="33" viewBox="0 0 30 33" fill="none" xmlns="http://www.w3.org/2000/svg">
<path d="M3.49995 29.4167H9.91345V19.7596C9.91345 19.2688 10.0795 18.8573 10.4115 18.5253C10.7435 18.1933 11.155 18.0273 11.6458 18.0273H18.3541C18.8449 18.0273 19.2564 18.1933 19.5884 18.5253C19.9204 18.8573 20.0864 19.2688 20.0864 19.7596V29.4167H26.5V12.4616C26.5 12.3633 26.4785 12.2742 26.4355 12.1943C26.3924 12.1145 26.3341 12.0438 26.2604 11.9824L15.3501 3.78126C15.2518 3.69526 15.1351 3.65226 15 3.65226C14.8648 3.65226 14.7481 3.69526 14.6498 3.78126L3.73954 11.9824C3.66584 12.0438 3.60748 12.1145 3.56445 12.1943C3.52145 12.2742 3.49995 12.3633 3.49995 12.4616V29.4167ZM0.625 29.4167V12.4616C0.625 11.913 0.747714 11.3933 0.993144 10.9024C1.23857 10.4116 1.57782 10.0074 2.01089 9.68981L12.9211 1.47028C13.5266 1.0083 14.2185 0.777313 14.997 0.777313C15.7754 0.777313 16.4694 1.0083 17.0788 1.47028L27.989 9.68981C28.4221 10.0074 28.7613 10.4116 29.0068 10.9024C29.2522 11.3933 29.3749 11.913 29.3749 12.4616V29.4167C29.3749 30.2005 29.0917 30.8756 28.5253 31.442C27.9589 32.0084 27.2838 32.2916 26.5 32.2916H18.9439C18.453 32.2916 18.0416 32.1256 17.7095 31.7935C17.3775 31.4615 17.2115 31.0501 17.2115 30.5592V20.9022H12.7884V30.5592C12.7884 31.0501 12.6224 31.4615 12.2904 31.7935C11.9583 32.1256 11.5469 32.2916 11.056 32.2916H3.49995C2.7161 32.2916 2.04098 32.0084 1.47461 31.442C0.908203 30.8756 0.625 30.2005 0.625 29.4167Z" fill="white"/>
</svg>
