<svg width="38" height="37" viewBox="0 0 38 37" fill="none" xmlns="http://www.w3.org/2000/svg">
<path d="M7.57353 32.5416L3.73656 36.3786C3.19104 36.9241 2.56383 37.0476 1.85492 36.749C1.14598 36.4504 0.791504 35.9129 0.791504 35.1365V7.25648C0.791504 6.28831 1.12692 5.46881 1.79775 4.79797C2.46859 4.12714 3.28809 3.79172 4.25626 3.79172H23.504C23.4008 4.27089 23.3461 4.74697 23.34 5.21998C23.3338 5.69301 23.3639 6.17524 23.4303 6.66668H4.25626C4.10881 6.66668 3.97363 6.72811 3.85074 6.85096C3.72789 6.97386 3.66646 7.10903 3.66646 7.25648V32.3205L6.34984 29.6667H33.7433C33.8908 29.6667 34.0259 29.6052 34.1488 29.4824C34.2717 29.3595 34.3331 29.2243 34.3331 29.0769V14.5656C34.8835 14.4427 35.3952 14.2855 35.8683 14.0938C36.3413 13.9021 36.7879 13.6503 37.2081 13.3382V29.0769C37.2081 30.045 36.8727 30.8645 36.2018 31.5354C35.531 32.2062 34.7115 32.5416 33.7433 32.5416H7.57353ZM32.4165 10.9423C30.9544 10.9423 29.7104 10.4294 28.6845 9.40349C27.6586 8.37759 27.1457 7.13361 27.1457 5.67154C27.1457 4.20948 27.6586 2.9655 28.6845 1.9396C29.7104 0.913707 30.9544 0.400757 32.4165 0.400757C33.8785 0.400757 35.1225 0.913707 36.1484 1.9396C37.1743 2.9655 37.6872 4.20948 37.6872 5.67154C37.6872 7.13361 37.1743 8.37759 36.1484 9.40349C35.1225 10.4294 33.8785 10.9423 32.4165 10.9423ZM3.66646 7.25648V30.9937V6.66668V7.25648Z" fill="white"/>
</svg>
