<svg width="38" height="34" viewBox="0 0 38 34" fill="none" xmlns="http://www.w3.org/2000/svg">
<path d="M11.3331 16.8622C11.8025 16.8622 12.2024 16.6969 12.5329 16.3664C12.8634 16.0359 13.0286 15.636 13.0286 15.1667C13.0286 14.6973 12.8634 14.2974 12.5329 13.9669C12.2024 13.6364 11.8025 13.4712 11.3331 13.4712C10.8638 13.4712 10.4639 13.6364 10.1334 13.9669C9.80289 14.2974 9.63764 14.6973 9.63764 15.1667C9.63764 15.636 9.80289 16.0359 10.1334 16.3664C10.4639 16.6969 10.8638 16.8622 11.3331 16.8622ZM18.9998 16.8622C19.4691 16.8622 19.869 16.6969 20.1995 16.3664C20.53 16.0359 20.6953 15.636 20.6953 15.1667C20.6953 14.6973 20.53 14.2974 20.1995 13.9669C19.869 13.6364 19.4691 13.4712 18.9998 13.4712C18.5305 13.4712 18.1306 13.6364 17.8001 13.9669C17.4696 14.2974 17.3043 14.6973 17.3043 15.1667C17.3043 15.636 17.4696 16.0359 17.8001 16.3664C18.1306 16.6969 18.5305 16.8622 18.9998 16.8622ZM26.6665 16.8622C27.1358 16.8622 27.5357 16.6969 27.8662 16.3664C28.1967 16.0359 28.3619 15.636 28.3619 15.1667C28.3619 14.6973 28.1967 14.2974 27.8662 13.9669C27.5357 13.6364 27.1358 13.4712 26.6665 13.4712C26.1971 13.4712 25.7972 13.6364 25.4667 13.9669C25.1362 14.2974 24.971 14.6973 24.971 15.1667C24.971 15.636 25.1362 16.0359 25.4667 16.3664C25.7972 16.6969 26.1971 16.8622 26.6665 16.8622ZM7.57353 29.5416L3.73656 33.3786C3.19104 33.9241 2.56383 34.0475 1.85492 33.749C1.14598 33.4504 0.791504 32.9129 0.791504 32.1365V4.25648C0.791504 3.28831 1.12692 2.4688 1.79775 1.79797C2.46859 1.12713 3.28809 0.791718 4.25626 0.791718H33.7433C34.7115 0.791718 35.531 1.12713 36.2018 1.79797C36.8727 2.4688 37.2081 3.28831 37.2081 4.25648V26.0769C37.2081 27.045 36.8727 27.8645 36.2018 28.5354C35.531 29.2062 34.7115 29.5416 33.7433 29.5416H7.57353ZM6.34984 26.6667H33.7433C33.8908 26.6667 34.026 26.6052 34.1488 26.4824C34.2717 26.3595 34.3331 26.2243 34.3331 26.0769V4.25648C34.3331 4.10902 34.2717 3.97385 34.1488 3.85096C34.026 3.7281 33.8908 3.66667 33.7433 3.66667H4.25626C4.10881 3.66667 3.97363 3.7281 3.85074 3.85096C3.72789 3.97385 3.66646 4.10902 3.66646 4.25648V29.3205L6.34984 26.6667Z" fill="white"/>
</svg>
